Coordinates
version=1
nRows=24
nColumns=42
inDegrees=yes

Units are S.I. units (second, meters, Newtons, ...)
Angles are in degrees.

endheader
time	pelvis_tx	pelvis_ty	pelvis_tz	pelvis_tilt	pelvis_list	pelvis_rotation	hip_flexion_r	hip_adduction_r	hip_rotation_r	knee_angle_r	ankle_angle_r	subtalar_angle_r	mtp_angle_r	hip_flexion_l	hip_adduction_l	hip_rotation_l	knee_angle_l	ankle_angle_l	subtalar_angle_l	mtp_angle_l	lumbar_extension	lumbar_bending	lumbar_rotation	ground_force_vx	ground_force_vy	ground_force_vz	ground_force_px	ground_force_py	ground_force_pz	ground_force_vx	ground_force_vy	ground_force_vz	ground_force_px	ground_force_py	ground_force_pz	ground_torque_x	ground_torque_y	ground_torque_z	ground_torque_x	ground_torque_y	ground_torque_z
2.090000	0.030515	0.634742	-0.189889	-14.025919	17.013912	-101.497253	50.949267	17.229984	-1.432534	-55.607811	22.578000	-0.000000	0.000000	29.269990	-12.357662	7.286093	-79.287691	34.905019	-0.000000	0.000000	10.416352	24.033737	-8.273517	14.415133	270.582458	-19.063482	-0.076695	-0.003279	-0.150334	0.000000	0.000000	0.000000	0.000000	0.000000	0.000000	-0.000965	1.454358	-0.003379	0.000000	0.000000	0.000000
2.100000	0.026155	0.635707	-0.180847	-14.014846	17.802813	-102.553642	50.452985	17.889775	-1.663000	-55.158282	23.036375	-0.000000	0.000000	29.135111	-13.557007	6.068654	-78.990585	32.951206	-0.000000	0.000000	11.388330	24.281953	-7.302551	17.010677	297.253357	-21.020248	-0.077291	-0.004145	-0.147387	0.000000	0.000000	0.000000	0.000000	0.000000	0.000000	-0.001190	1.794017	-0.004168	0.000000	0.000000	0.000000
2.110000	0.021849	0.636720	-0.171796	-13.947015	18.613745	-103.588013	49.983526	18.506760	-1.822792	-54.706414	23.526308	-0.000000	0.000000	29.036890	-14.639317	4.952080	-78.765031	31.039798	-0.000000	0.000000	12.411402	24.526437	-6.401024	19.418747	318.209991	-21.585680	-0.078061	-0.004759	-0.144024	0.000000	0.000000	0.000000	0.000000	0.000000	0.000000	-0.001388	2.092371	-0.004861	0.000000	0.000000	0.000000
2.120000	0.017692	0.637800	-0.162803	-13.800308	19.425146	-104.556541	49.538379	19.040604	-1.878688	-54.261004	24.041100	-0.000000	0.000000	29.012256	-15.523929	4.010760	-78.637600	29.259410	-0.000000	0.000000	13.472975	24.750329	-5.623617	21.624729	333.128723	-20.651369	-0.079012	-0.005117	-0.140384	0.000000	0.000000	0.000000	0.000000	0.000000	0.000000	-0.001541	2.322487	-0.005396	0.000000	0.000000	0.000000
2.130000	0.013718	0.639005	-0.153918	-13.568966	20.212257	-105.442635	49.089966	19.470902	-1.823284	-53.802186	24.559156	-0.000000	0.000000	29.068609	-16.189416	3.255664	-78.601878	27.676217	-0.000000	0.000000	14.546857	24.939782	-4.985532	23.440422	342.044281	-18.380789	-0.080128	-0.005264	-0.136574	0.000000	0.000000	0.000000	0.000000	0.000000	0.000000	-0.001637	2.468140	-0.005734	0.000000	0.000000	0.000000
2.140000	0.009912	0.640403	-0.145178	-13.256098	20.948212	-106.251480	48.598681	19.794441	-1.658047	-53.300467	25.052727	-0.000000	0.000000	29.192929	-16.653162	2.651519	-78.633195	26.338488	-0.000000	0.000000	15.597215	25.081247	-4.471114	24.635838	345.315918	-15.137426	-0.081376	-0.005264	-0.132646	0.000000	0.000000	0.000000	0.000000	0.000000	0.000000	-0.001675	2.525064	-0.005866	0.000000	0.000000	0.000000
2.150000	0.006243	0.642046	-0.136609	-12.868733	21.608816	-106.996567	48.028825	20.017852	-1.385642	-52.732267	25.495705	-0.000000	0.000000	29.368208	-16.948858	2.145599	-78.704202	25.279811	-0.000000	0.000000	16.588375	25.161396	-4.051364	25.075472	343.606018	-11.331544	-0.082722	-0.005177	-0.128630	0.000000	0.000000	0.000000	0.000000	0.000000	0.000000	-0.001657	2.497975	-0.005803	0.000000	0.000000	0.000000
2.160000	0.002682	0.643955	-0.128231	-12.420009	22.177341	-107.685051	47.358653	20.151643	-1.015378	-52.085691	25.866842	-0.000000	0.000000	29.587416	-17.114810	1.694620	-78.795091	24.519807	-0.000000	0.000000	17.493730	25.171812	-3.701993	24.757494	337.771698	-7.326307	-0.084124	-0.005048	-0.124542	0.000000	0.000000	0.000000	0.000000	0.000000	0.000000	-0.001590	2.396602	-0.005568	0.000000	0.000000	0.000000
2.170000	-0.000787	0.646119	-0.120058	-11.928229	22.644987	-108.314758	46.582139	20.207714	-0.562655	-51.361971	26.150844	-0.000000	0.000000	29.856516	-17.188188	1.273499	-78.896690	24.063443	-0.000000	0.000000	18.296933	25.110081	-3.408363	23.781816	328.774933	-3.409986	-0.085535	-0.004907	-0.120393	0.000000	0.000000	0.000000	0.000000	0.000000	0.000000	-0.001482	2.234362	-0.005191	0.000000	0.000000	0.000000
2.180000	-0.004171	0.648502	-0.112099	-11.410345	23.008234	-108.880692	45.706164	20.197517	-0.040464	-50.576513	26.338953	-0.000000	0.000000	30.189740	-17.199735	0.869637	-79.008015	23.899307	-0.000000	0.000000	18.987977	24.975263	-3.159774	22.305735	317.623383	0.208887	-0.086912	-0.004764	-0.116205	0.000000	0.000000	0.000000	0.000000	0.000000	0.000000	-0.001345	2.027958	-0.004711	0.000000	0.000000	0.000000
2.190000	-0.007468	0.651050	-0.104362	-10.878890	23.266375	-109.377876	44.746885	20.130103	0.542929	-49.757604	26.428433	-0.000000	0.000000	30.604951	-17.170993	0.479348	-79.133096	23.998570	-0.000000	0.000000	19.560417	24.765416	-2.947099	20.513783	305.287537	3.395523	-0.088215	-0.004621	-0.112028	0.000000	0.000000	0.000000	0.000000	0.000000	0.000000	-0.001191	1.795659	-0.004172	0.000000	0.000000	0.000000
2.200000	-0.010661	0.653700	-0.096848	-10.345638	23.420483	-109.797409	43.725707	20.011380	1.176657	-48.941338	26.420866	-0.000000	0.000000	31.121368	-17.115049	0.111710	-79.278730	24.316027	-0.000000	0.000000	20.011380	24.479897	-2.767367	18.597382	292.630981	6.077312	-0.089402	-0.004473	-0.107937	0.000000	0.000000	0.000000	0.000000	0.000000	0.000000	-0.001032	1.555109	-0.003613	0.000000	0.000000	0.000000
2.210000	-0.013720	0.656386	-0.089550	-9.828235	23.474033	-110.119888	42.666047	19.844758	1.835423	-48.164483	26.320045	-0.000000	0.000000	31.759246	-17.039650	-0.205301	-79.453152	24.794335	-0.000000	0.000000	20.343636	24.124295	-2.629824	16.736851	280.371063	8.221929	-0.090434	-0.004318	-0.104022	0.000000	0.000000	0.000000	0.000000	0.000000	0.000000	-0.000876	1.321037	-0.003069	0.000000	0.000000	0.000000
2.220000	-0.016601	0.659039	-0.082452	-9.351970	23.433943	-110.317436	41.591235	19.633278	2.476356	-47.459569	26.130791	-0.000000	0.000000	32.538287	-16.951978	-0.429916	-79.664342	25.371288	-0.000000	0.000000	20.566058	23.712989	-2.553920	15.085066	269.049896	9.814372	-0.091283	-0.004155	-0.100368	0.000000	0.000000	0.000000	0.000000	0.000000	0.000000	-0.000733	1.104855	-0.002567	0.000000	0.000000	0.000000
2.230000	-0.019265	0.661596	-0.075533	-8.940653	23.309380	-110.369110	40.522577	19.381963	3.055246	-46.854469	25.860046	-0.000000	0.000000	33.471646	-16.860353	-0.527868	-79.916034	25.988142	-0.000000	0.000000	20.689659	23.263761	-2.555051	13.751172	259.026154	10.838026	-0.091956	-0.003986	-0.097032	0.000000	0.000000	0.000000	0.000000	0.000000	0.000000	-0.000607	0.914449	-0.002124	0.000000	0.000000	0.000000
2.240000	-0.021702	0.664000	-0.068775	-8.604729	23.110542	-110.275276	39.479026	19.098013	3.545893	-46.373501	25.519998	-0.000000	0.000000	34.561707	-16.770662	-0.489334	-80.203489	26.596555	-0.000000	0.000000	20.724365	22.789059	-2.630858	12.794580	250.496307	11.268372	-0.092494	-0.003814	-0.094030	0.000000	0.000000	0.000000	0.000000	0.000000	0.000000	-0.000501	0.755520	-0.001755	0.000000	0.000000	0.000000
2.250000	-0.023921	0.666198	-0.062168	-8.341511	22.849277	-110.054932	38.477529	18.790600	3.940675	-46.035342	25.132231	-0.000000	0.000000	35.802223	-16.684776	-0.324697	-80.512924	27.163024	-0.000000	0.000000	20.680109	22.295257	-2.763039	12.229561	243.535690	11.095160	-0.092951	-0.003644	-0.091338	0.000000	0.000000	0.000000	0.000000	0.000000	0.000000	-0.000419	0.631864	-0.001468	0.000000	0.000000	0.000000
2.260000	-0.025949	0.668150	-0.055705	-8.147522	22.538342	-109.732597	37.528802	18.473773	4.239008	-45.847495	24.730044	-0.000000	0.000000	37.180326	-16.606198	-0.050210	-80.824183	27.670271	-0.000000	0.000000	20.566642	21.790762	-2.930002	12.036487	238.148056	10.359213	-0.093616	-0.003425	-0.089499	0.000000	0.000000	0.000000	0.000000	0.000000	0.000000	-0.000361	0.544473	-0.001265	0.000000	0.000000	0.000000
2.270000	-0.027817	0.669831	-0.049373	-8.027256	22.187267	-109.330505	36.630687	18.168426	4.442510	-45.803392	24.352517	-0.000000	0.000000	38.673620	-16.545580	0.317892	-81.112601	28.115540	-0.000000	0.000000	20.389255	21.291143	-3.114400	12.175148	234.292450	9.152962	-0.094036	-0.003263	-0.087343	0.000000	0.000000	0.000000	0.000000	0.000000	0.000000	-0.000326	0.491157	-0.001141	0.000000	0.000000	0.000000
2.280000	-0.029560	0.671237	-0.043161	-7.986292	21.798994	-108.873009	35.768461	17.896573	4.560832	-45.887748	24.032985	-0.000000	0.000000	40.247310	-16.517416	0.755504	-81.348762	28.505928	-0.000000	0.000000	20.145674	20.812423	-3.298579	12.590645	231.890305	7.591512	-0.094464	-0.003100	-0.085384	0.000000	0.000000	0.000000	0.000000	0.000000	0.000000	-0.000310	0.467362	-0.001086	0.000000	0.000000	0.000000
2.290000	-0.031224	0.672376	-0.037059	-8.017357	21.370344	-108.395424	34.922791	17.672139	4.618950	-46.086360	23.794176	-0.000000	0.000000	41.855942	-16.532644	1.218950	-81.498329	28.850774	-0.000000	0.000000	19.827351	20.359614	-3.455360	13.212297	230.821884	5.795623	-0.094910	-0.002934	-0.083601	0.000000	0.000000	0.000000	0.000000	0.000000	0.000000	-0.000310	0.467463	-0.001086	0.000000	0.000000	0.000000
2.300000	-0.032858	0.673268	-0.031063	-8.098081	20.895662	-107.942177	34.076893	17.498187	4.654002	-46.390208	23.651069	-0.000000	0.000000	43.450105	-16.595512	1.648274	-81.525008	29.154905	-0.000000	0.000000	19.424160	19.924676	-3.549558	13.953276	230.927246	3.892174	-0.095365	-0.002762	-0.081987	0.000000	0.000000	0.000000	0.000000	0.000000	0.000000	-0.000322	0.485673	-0.001128	0.000000	0.000000	0.000000
2.310000	-0.034506	0.673930	-0.025168	-8.202394	20.371714	-107.552032	33.219868	17.370704	4.700781	-46.792253	23.613414	-0.000000	0.000000	44.985781	-16.703935	1.988197	-81.396075	29.417235	-0.000000	0.000000	18.930650	19.494938	-3.552663	14.722495	232.012543	2.002783	-0.095803	-0.002583	-0.080528	0.000000	0.000000	0.000000	0.000000	0.000000	0.000000	-0.000343	0.516420	-0.001200	0.000000	0.000000	0.000000
2.320000	-0.036188	0.674378	-0.019367	-8.310916	19.800495	-107.246704	32.347335	17.283223	4.780614	-47.283842	23.686066	-0.000000	0.000000	46.430130	-16.850702	2.204943	-81.087084	29.632349	-0.000000	0.000000	18.349491	19.060963	-3.453780	15.441264	233.880035	0.223334	-0.096188	-0.002404	-0.079209	0.000000	0.000000	0.000000	0.000000	0.000000	0.000000	-0.000369	0.555600	-0.001291	0.000000	0.000000	0.000000
